{
	"asset":{
		"generator":"Khronos glTF Blender I/O v4.1.63",
		"version":"2.0"
	},
	"scene":0,
	"scenes":[
		{
			"name":"Scene",
			"nodes":[
				2
			]
		}
	],
	"nodes":[
		{
			"mesh":0,
			"name":"Object_2",
			"translation":[
				-0.5366281270980835,
				-1.6396878957748413,
				-2
			]
		},
		{
			"children":[
				0
			],
			"name":"MIa_000376_ShivaNataraja_64kMesh.obj.cleaner.materialmerger.gle"
		},
		{
			"children":[
				1
			],
			"name":"Sketchfab_model",
			"rotation":[
				-0.70710688829422,
				0,
				0,
				0.7071066498756409
			],
			"scale":[
				6.678452968597412,
				6.6784539222717285,
				6.6784539222717285
			]
		}
	],
	"materials":[
		{
			"doubleSided":true,
			"name":"MIa_000376_ShivaNataraja_64kMesh",
			"normalTexture":{
				"index":0
			},
			"occlusionTexture":{
				"index":1
			},
			"pbrMetallicRoughness":{
				"baseColorTexture":{
					"index":2
				},
				"metallicFactor":0,
				"metallicRoughnessTexture":{
					"index":1
				}
			}
		}
	],
	"meshes":[
		{
			"name":"Object_0",
			"primitives":[
				{
					"attributes":{
						"POSITION":0,
						"NORMAL":1,
						"TEXCOORD_0":2
					},
					"indices":3,
					"material":0
				}
			]
		}
	],
	"textures":[
		{
			"sampler":0,
			"source":0
		},
		{
			"sampler":0,
			"source":1
		},
		{
			"sampler":0,
			"source":2
		}
	],
	"images":[
		{
			"mimeType":"image/jpeg",
			"name":"MIa_000376_ShivaNataraja_64kMesh_normal",
			"uri":"MIa_000376_ShivaNataraja_64kMesh_normal.jpg"
		},
		{
			"mimeType":"image/png",
			"name":"MIa_000376_ShivaNataraja_64kMesh_metallicRoughness",
			"uri":"MIa_000376_ShivaNataraja_64kMesh_metallicRoughness.png"
		},
		{
			"mimeType":"image/jpeg",
			"name":"MIa_000376_ShivaNataraja_64kMesh_baseColor",
			"uri":"MIa_000376_ShivaNataraja_64kMesh_baseColor.jpg"
		}
	],
	"accessors":[
		{
			"bufferView":0,
			"componentType":5126,
			"count":40241,
			"max":[
				0.8554549813270569,
				1.7481369972229004,
				2.385925054550171
			],
			"min":[
				0.33013999462127686,
				1.5256470441818237,
				1.684872031211853
			],
			"type":"VEC3"
		},
		{
			"bufferView":1,
			"componentType":5126,
			"count":40241,
			"type":"VEC3"
		},
		{
			"bufferView":2,
			"componentType":5126,
			"count":40241,
			"type":"VEC2"
		},
		{
			"bufferView":3,
			"componentType":5123,
			"count":191982,
			"type":"SCALAR"
		}
	],
	"bufferViews":[
		{
			"buffer":0,
			"byteLength":482892,
			"byteOffset":0,
			"target":34962
		},
		{
			"buffer":0,
			"byteLength":482892,
			"byteOffset":482892,
			"target":34962
		},
		{
			"buffer":0,
			"byteLength":321928,
			"byteOffset":965784,
			"target":34962
		},
		{
			"buffer":0,
			"byteLength":383964,
			"byteOffset":1287712,
			"target":34963
		}
	],
	"samplers":[
		{
			"magFilter":9729,
			"minFilter":9987
		}
	],
	"buffers":[
		{
			"byteLength":1671676,
			"uri":"lord.bin"
		}
	]
}
